<svg width="96" height="96" viewBox="0 0 96 96" fill="none" xmlns="http://www.w3.org/2000/svg">
  <defs>
    <linearGradient id="grad" x1="12" y1="12" x2="84" y2="84" gradientUnits="userSpaceOnUse">
      <stop offset="0%" stop-color="#6758FF" />
      <stop offset="50%" stop-color="#8B5CF6" />
      <stop offset="100%" stop-color="#F472B6" />
    </linearGradient>
    <radialGradient id="glow" cx="0.5" cy="0.3" r="0.7">
      <stop offset="0%" stop-color="#FFFFFF" stop-opacity="0.85" />
      <stop offset="100%" stop-color="#FFFFFF" stop-opacity="0" />
    </radialGradient>
  </defs>
  <rect x="4" y="4" width="88" height="88" rx="28" fill="url(#grad)" />
  <rect x="8" y="8" width="80" height="80" rx="24" fill="url(#glow)" />
  <path d="M34.5 69C28.2 63.6 25 56.3 25 48C25 33.6 36.6 22 51 22C60.5 22 68.7 26.5 73.6 33.6C74.6 35 74 37 72.4 37.6L64.2 40.7C62.8 41.2 61.1 40.7 60.1 39.6C57.4 36.6 54.3 35 51 35C43.8 35 38 40.8 38 48C38 52.8 40.2 56.9 43.8 59.3C45.3 60.3 47.3 60 48.5 58.7L52.8 53.9C53.8 52.8 55.5 52.4 56.9 53L73 59.7C74.6 60.4 75.1 62.4 74 63.8C67.9 71.6 59.1 76 49.5 76C43.6 76 38.1 73.3 34.5 69Z" fill="#1E1B4B" opacity="0.95" />
</svg>
